<?xml version="1.0" encoding="iso-8859-1"?>
<!-- Generator: Adobe Illustrator 19.0.0, SVG Export Plug-In . SVG Version: 6.00 Build 0)  -->
<svg version="1.1" id="Layer_1" xmlns="http://www.w3.org/2000/svg" xmlns:xlink="http://www.w3.org/1999/xlink" x="0px" y="0px"
	 viewBox="0 0 512 512" style="enable-background:new 0 0 512 512;" xml:space="preserve">
<circle style="fill:#FF873D;" cx="255.997" cy="256" r="255.997"/>
<path style="fill:#E37936;" d="M512,259.943c-1.891,123.114-90.641,225.261-207.764,247.487l-71.409-71.409l1.261-18.601
	l-37.675-37.675l72.985-246.542l86.069-29.95l156.532,156.532L512,259.943L512,259.943z"/>
<rect x="232.983" y="378.015" style="fill:#CED8ED;" width="46.188" height="58.166"/>
<path style="fill:#B9C2D6;" d="M279.173,381.165v54.857H256v-54.857H279.173z"/>
<path style="fill:#CCCCCC;" d="M146.443,103.411h61.793v74.562c-8.355-36.413-46.66-30.581-53.281-62.266
	C154.168,112.081,145.971,111.923,146.443,103.411z M146.443,303.135h61.793v74.562c-8.355-36.413-46.66-30.581-53.281-62.266
	C154.168,311.805,145.971,311.648,146.443,303.135z M365.557,303.135h-61.793v74.562c8.355-36.413,46.66-30.581,53.281-62.266
	C357.832,311.805,366.029,311.648,365.557,303.135z M146.443,203.195h61.793v74.562c-8.355-36.413-46.66-30.581-53.281-62.266
	C154.168,211.865,145.971,211.707,146.443,203.195z M365.557,203.195h-61.793v74.562c8.355-36.413,46.66-30.581,53.281-62.266
	C357.832,211.865,366.029,211.707,365.557,203.195z M365.557,103.254h-61.793v74.562c8.355-36.413,46.66-30.581,53.281-62.266
	C357.832,111.923,366.029,111.766,365.557,103.254z"/>
<path style="fill:#F7F7F8;" d="M246.069,75.983h20.019c31.054,0,56.434,25.38,56.434,56.434v236.611
	c0,6.778-5.517,12.296-12.296,12.296H201.931c-6.778,0-12.296-5.517-12.296-12.296V132.416
	C189.636,101.362,215.014,75.983,246.069,75.983z"/>
<g>
	<path style="fill:#E6E6E6;" d="M255.999,75.983h10.088c31.054,0,56.434,25.38,56.434,56.434v236.611
		c0,6.778-5.517,12.296-12.296,12.296h-54.226L255.999,75.983L255.999,75.983z"/>
	<path style="fill:#E6E6E6;" d="M255.999,190.899c20.808,0,37.675,16.867,37.675,37.675s-16.867,37.675-37.675,37.675
		s-37.675-16.867-37.675-37.675S235.192,190.899,255.999,190.899z"/>
	<path style="fill:#E6E6E6;" d="M255.999,90.958c20.808,0,37.675,16.867,37.675,37.675s-16.867,37.675-37.675,37.675
		s-37.675-16.867-37.675-37.675S235.192,90.958,255.999,90.958z"/>
</g>
<path style="fill:#FF1A00;" d="M255.999,99.313c16.236,0,29.478,13.241,29.478,29.478S272.236,158.269,256,158.269
	c-16.236,0-29.478-13.241-29.478-29.478S239.764,99.313,255.999,99.313z"/>
<path style="fill:#FFFF00;" d="M255.999,199.096c16.236,0,29.478,13.241,29.478,29.478S272.236,258.052,256,258.052
	c-16.236,0-29.478-13.241-29.478-29.478S239.764,199.096,255.999,199.096z"/>
<path style="fill:#E6E6E6;" d="M255.999,290.682c20.808,0,37.675,16.867,37.675,37.675c0,20.808-16.867,37.675-37.675,37.675
	s-37.675-16.867-37.675-37.675C218.324,307.55,235.192,290.682,255.999,290.682z"/>
<path style="fill:#00E800;" d="M255.999,299.036c16.236,0,29.478,13.241,29.478,29.478c0,16.237-13.241,29.478-29.478,29.478
	c-16.236,0-29.478-13.241-29.478-29.478C226.521,312.278,239.764,299.036,255.999,299.036z"/>
<g>
</g>
<g>
</g>
<g>
</g>
<g>
</g>
<g>
</g>
<g>
</g>
<g>
</g>
<g>
</g>
<g>
</g>
<g>
</g>
<g>
</g>
<g>
</g>
<g>
</g>
<g>
</g>
<g>
</g>
</svg>
